<svg width="24" height="24" viewBox="0 0 24 24" fill="none" xmlns="http://www.w3.org/2000/svg">
<path d="M21.7959 5.20406L18.7959 2.20406C18.6914 2.09918 18.5672 2.01596 18.4305 1.95918C18.2937 1.9024 18.1471 1.87317 17.9991 1.87317C17.851 1.87317 17.7044 1.9024 17.5676 1.95918C17.4309 2.01596 17.3067 2.09918 17.2022 2.20406L8.20219 11.2041C7.99195 11.4155 7.87427 11.7018 7.875 12V15C7.875 15.2984 7.99353 15.5845 8.2045 15.7955C8.41548 16.0065 8.70163 16.125 9 16.125H12C12.1478 16.1251 12.2941 16.0961 12.4307 16.0396C12.5673 15.9832 12.6914 15.9004 12.7959 15.7959L21.7959 6.79593C21.9005 6.69145 21.9835 6.56737 22.0401 6.4308C22.0967 6.29423 22.1259 6.14784 22.1259 5.99999C22.1259 5.85215 22.0967 5.70576 22.0401 5.56919C21.9835 5.43261 21.9005 5.30854 21.7959 5.20406ZM18 4.59374L19.4062 5.99999L18.375 7.03124L16.9688 5.62499L18 4.59374ZM11.5312 13.875H10.125V12.4687L15.375 7.21874L16.7812 8.62499L11.5312 13.875ZM21.375 13.1784V19.5C21.375 19.9973 21.1775 20.4742 20.8258 20.8258C20.4742 21.1774 19.9973 21.375 19.5 21.375H4.5C4.00272 21.375 3.52581 21.1774 3.17417 20.8258C2.82254 20.4742 2.625 19.9973 2.625 19.5V4.49999C2.625 4.00271 2.82254 3.5258 3.17417 3.17417C3.52581 2.82254 4.00272 2.62499 4.5 2.62499H10.8216C11.1199 2.62499 11.4061 2.74352 11.6171 2.9545C11.828 3.16548 11.9466 3.45162 11.9466 3.74999C11.9466 4.04836 11.828 4.33451 11.6171 4.54549C11.4061 4.75647 11.1199 4.87499 10.8216 4.87499H4.875V19.125H19.125V13.1784C19.125 12.8801 19.2435 12.5939 19.4545 12.3829C19.6655 12.172 19.9516 12.0534 20.25 12.0534C20.5484 12.0534 20.8345 12.172 21.0455 12.3829C21.2565 12.5939 21.375 12.8801 21.375 13.1784Z" fill="black"/>
</svg>
