<svg width="24" height="24" viewBox="0 0 24 24" fill="none" xmlns="http://www.w3.org/2000/svg">
<path d="M3.5 16.9629V20.5H7.03711L17.4668 10.0703L13.9297 6.5332L3.5 16.9629ZM16.4082 4.06543L14.9873 5.47559L14.6318 5.8291L18.1709 9.36816L18.5244 9.0127L19.9346 7.59277L20.2861 7.23828L19.9336 6.88672L17.1133 4.06641L16.7617 3.71387L16.4082 4.06543ZM2.5 16.7568C2.49966 16.6912 2.51232 16.6262 2.53711 16.5654C2.56176 16.5051 2.59784 16.4498 2.64355 16.4033L16.4023 2.64453C16.449 2.59835 16.5047 2.56193 16.5654 2.53711C16.6262 2.51232 16.6912 2.49966 16.7568 2.5H16.7627C16.8285 2.49962 16.8942 2.51223 16.9551 2.53711C17.015 2.56162 17.07 2.59725 17.1162 2.64258V2.64355L21.3564 6.88281C21.3952 6.9221 21.4244 6.96897 21.4482 7.01855L21.4033 7.05176L21.4326 7.33984C21.4339 7.3531 21.4339 7.36663 21.4326 7.37988L21.4268 7.43555L21.4336 7.49023C21.4355 7.50578 21.4332 7.52148 21.4336 7.53711C21.4091 7.57802 21.382 7.61717 21.3496 7.65234L18.5205 10.4229L18.5156 10.4277L7.64746 21.3555C7.59782 21.4049 7.53811 21.4438 7.47266 21.4688C7.40733 21.4937 7.33741 21.5047 7.26758 21.501L7.25391 21.5H3C2.8674 21.5 2.74025 21.4473 2.64648 21.3535C2.55273 21.2597 2.5 21.1326 2.5 21V16.7568Z" fill="#222222" stroke="#444444"/>
</svg>
