<svg width="24" height="24" viewBox="0 0 24 24" fill="none" xmlns="http://www.w3.org/2000/svg">
<path d="M8.55 20H15.45L16.45 16H7.55L8.55 20ZM8.55 22C8.08333 22 7.675 21.8583 7.325 21.575C6.975 21.2917 6.74167 20.925 6.625 20.475L5.5 16H18.5L17.375 20.475C17.2583 20.925 17.025 21.2917 16.675 21.575C16.325 21.8583 15.9167 22 15.45 22H8.55ZM5 14H19V12H5V14ZM12 8.00001C12 6.50001 12.5083 5.20001 13.525 4.10001C14.5417 3.00001 15.8083 2.33334 17.325 2.10001C17.4083 2.08334 17.4833 2.09167 17.55 2.12501C17.6167 2.15834 17.6833 2.20001 17.75 2.25001C17.8167 2.30001 17.8627 2.36234 17.888 2.43701C17.9133 2.51167 17.9173 2.59101 17.9 2.67501C17.7167 3.99167 17.1793 5.13734 16.288 6.11201C15.3967 7.08667 14.3007 7.68267 13 7.90001V10H20C20.2833 10 20.521 10.096 20.713 10.288C20.905 10.48 21.0007 10.7173 21 11V14C21 14.55 20.8043 15.021 20.413 15.413C20.0217 15.805 19.5507 16.0007 19 16H5C4.45 16 3.97933 15.8043 3.588 15.413C3.19667 15.0217 3.00067 14.5507 3 14V11C3 10.7167 3.096 10.4793 3.288 10.288C3.48 10.0967 3.71733 10.0007 4 10H11V7.90001C9.7 7.68334 8.60433 7.08767 7.713 6.11301C6.82167 5.13834 6.284 3.99234 6.1 2.67501C6.08333 2.59167 6.08767 2.51267 6.113 2.43801C6.13833 2.36334 6.184 2.30067 6.25 2.25001C6.316 2.19934 6.38267 2.15767 6.45 2.12501C6.51733 2.09234 6.59233 2.08401 6.675 2.10001C8.19167 2.33334 9.45833 3.00001 10.475 4.10001C11.4917 5.20001 12 6.50001 12 8.00001Z" fill="black"/>
</svg>
