<svg width="24" height="24" viewBox="0 0 24 24" fill="none" xmlns="http://www.w3.org/2000/svg">
<path d="M14.17 20.89C18.354 20.613 21.686 17.233 21.96 12.99C22.013 12.16 22.013 11.3 21.96 10.47C21.686 6.228 18.354 2.85 14.17 2.571C12.7249 2.47576 11.2751 2.47576 9.83 2.571C5.646 2.849 2.314 6.228 2.04 10.471C1.98703 11.3102 1.98703 12.1518 2.04 12.991C2.14 14.536 2.823 15.967 3.628 17.175C4.095 18.02 3.787 19.075 3.3 19.998C2.95 20.663 2.774 20.995 2.915 21.235C3.055 21.475 3.37 21.483 3.999 21.498C5.244 21.528 6.083 21.176 6.749 20.685C7.126 20.406 7.315 20.267 7.445 20.251C7.575 20.235 7.832 20.341 8.344 20.551C8.804 20.741 9.339 20.858 9.829 20.891C11.254 20.985 12.743 20.985 14.171 20.891" stroke="black" stroke-width="1.5" stroke-linecap="round" stroke-linejoin="round"/>
<path d="M7.5 15L9.342 9.474C9.38824 9.33609 9.47664 9.2162 9.59471 9.13126C9.71278 9.04632 9.85455 9.00062 10 9.00062C10.1455 9.00062 10.2872 9.04632 10.4053 9.13126C10.5234 9.2162 10.6118 9.33609 10.658 9.474L12.5 15M15.5 9V15M8.5 13H11.5" stroke="black" stroke-width="1.5" stroke-linecap="round" stroke-linejoin="round"/>
</svg>
