<svg width="24" height="24" viewBox="0 0 24 24" fill="none" xmlns="http://www.w3.org/2000/svg">
<path d="M7.15918 16.4999L8.15918 20.4999H15.8408L16.8408 16.4999H17.8584L16.8906 20.3495C16.7999 20.6995 16.6243 20.9727 16.3604 21.1864C16.1029 21.3948 15.8067 21.4998 15.4502 21.4999H8.5498C8.19326 21.4998 7.89714 21.3948 7.63965 21.1864C7.40874 20.9995 7.24554 20.7669 7.14746 20.4774L7.10938 20.3495L6.1416 16.4999H7.15918ZM11.5 7.99986H12.5V10.4999H20C20.1571 10.4999 20.2656 10.5477 20.3594 10.6415C20.4531 10.7352 20.5004 10.8431 20.5 10.9989V13.9999C20.5 14.4162 20.3578 14.7605 20.0596 15.0594C19.7616 15.3579 19.4176 15.5003 19.001 15.4999H5C4.58354 15.4999 4.23963 15.3577 3.94141 15.0594C3.64333 14.7613 3.50061 14.4171 3.5 13.9999V10.9999C3.50003 10.843 3.54764 10.7352 3.64062 10.6424C3.73479 10.5486 3.84403 10.5003 4.00098 10.4999H11.5V7.99986ZM4.5 14.4999H19.5V11.4999H4.5V14.4999ZM6.62793 2.59947C8.02264 2.82 9.17602 3.43166 10.1074 4.43932C10.917 5.31521 11.3708 6.3207 11.4756 7.47154L11.082 7.40709C9.89266 7.20884 8.89804 6.66755 8.08203 5.77525C7.26247 4.87902 6.7685 3.83134 6.59668 2.619C6.6074 2.6118 6.61783 2.60548 6.62793 2.59947ZM17.4014 2.61998C17.23 3.8311 16.7383 4.8783 15.9189 5.77428C15.103 6.66652 14.1081 7.20817 12.918 7.40709L12.5234 7.47154C12.6283 6.32067 13.083 5.31523 13.8926 4.43932C14.8236 3.43212 15.9763 2.82025 17.3701 2.59947C17.3804 2.60563 17.3905 2.6128 17.4014 2.61998Z" fill="#444444" stroke="#444444"/>
</svg>
